<?xml version="1.0" encoding="UTF-8"?>
<svg id="Ebene_2" data-name="Ebene 2" xmlns="http://www.w3.org/2000/svg" viewBox="0 0 888.72 758.76">
  <defs>
    <style>
      .cls-1 {
        fill: #f1f1f1;
      }

      .cls-2 {
        fill: #dcdddc;
      }

      .cls-3 {
        fill: #c3c3c3;
      }

      .cls-4 {
        fill: #fff;
      }

      .cls-5 {
        fill: #cbcaca;
      }

      .cls-6 {
        fill: #c8c8c8;
      }
    </style>
  </defs>
  <g id="Ebene_1-2" data-name="Ebene 1">
    <g>
      <path class="cls-4" d="M234.21,323.47c.73.2.8-.18,1.21-.47,3.27-2.31,6.16-5.78,9.68-8.07,17.68-11.5,33.95-3.04,45.99,11.42,8.66,10.4,12.73,22.64,16.31,35.53.42-12.06-.07-25.59,11.12-33.04,7.47-4.98,20.09-7.92,21.31,4.49.22,2.2-.85,5.22-1.16,7.6-.85,6.45-1.86,13.1-2.74,19.72-1.96,14.71-2.44,29.21-.44,44.66.8,6.14,2.74,17.06,8.93,19.86,7.56,3.42,14.12-4.68,15.02-11.73,2.86-22.4-4.04-48.45-6.53-70.66-.15-1.3-.69-5.91-.37-6.78.13-.34,2.33-4.12,2.61-4.47,4.41-5.49,14.22-10.41,20.77-12.48,1.87-.59,2.09-1.63,5.23-1.05,2.86.53,3.18,2.88,5.45,4.43.74.02,5.98-5.39,7.1-6.25,3.51-2.68,10.54-7.23,14.96-6.58,3.33.5,13.85,8.52,17.61,10.7,21.44,12.45,46.46,17.99,67.27,30.63.9.55,3.19,2.62,3.56,2.72,1.56.43,7.09-3.68,9.08-4.67,4.25-2.11,13.05-6.35,17.14-2.88,3.24,2.75,6.41,15.71,8.11,20.21,6.97,18.41,15.39,36.14,24.36,53.63l.96-.24c-1.61-9.83-2.65-19.75-3.95-29.64-.8-6.04-1.96-12.48-2.68-18.49-.66-5.52-2.52-15.28-1.51-20.48.82-4.18,11.3-11.42,15.17-13.15,7.12-3.18,16.87-5.64,17.92,4.97.71,7.15-1.63,15.48-1.74,22.63.42,14.3,1.38,28.58,2.23,42.87l8.78-7.31c.26-1.3.69-2.65.81-3.97.36-4.17,1-13.11.12-16.88-1.44-6.13-12.63-6.95-9.65-17.13.98-3.34,10.75-10.63,14.02-12.37,3.69-1.97,11.42-5.41,15.4-4.67s4.94,2.93,8.01,4.95c14.32,9.42,33.43,10.23,50.1,11.33,2.83.19,7.72,1.73,10.52-.05,1.17-.75,2.12-3.88,3.01-5.12,5.3-7.35,19.7-13.68,28.35-9.83.94.42,3.38,3.03,3.7,3.98,1.59,4.67-4.65,17.82-6.12,23.11-4.31,15.43-8.75,42.82-.82,57.26,3.18,5.79,7.17,8.03,13.82,5.65,10.19-3.64,17.67-24.11,19.24-34.03,1.15-7.27,1.8-17.7,1.46-24.94-.28-5.81-2.16-9.63-1.34-15.73.63-4.71,5.24-8.97,8.84-11.8s13.19-8.88,17.34-9.47c1.99-.28,5.36,1.39,7.36.33-.6,2.61.97,1.57,1.68,2.39.43.49.33,1.52.7,2.08.65.99,1.64.54,1.76,3.05-1.02,5.73-2.47,11.47-3.11,17.27-5.5,50.03,22.39,88.36,43.78,130.29,6,11.77,15.87,30.64,12.66,43.73-2.56,10.44-12.13,19.47-21.97,23.14-4.18,1.56-8.09.42-8.62,5.78-.46,4.7-.04,9.79,0,14.4.02,1.9.33,3.98-.54,5.69-1.16,2.28-5.44,3.76-7.35,1.72-2.18-2.34-.57-6.24-.32-8.91.47-5.08.72-10.19,1.53-15.24-4.9-2.12-5.64-1.81-6.91,3.15-2.37,9.31-2.36,21.58-3.4,31.26s-2.79,18.86-3.21,28.39c-.26,5.79.42,11.95.25,17.76-.13,4.27-2.35,9.84-7.5,8.73-6.31-1.36-6.62-6.5-5.53-11.94,1.02-5.1,3.98-10.47,5.03-15.62,3.5-17.06,6.03-42.96,5.91-60.36-.01-2.17-.82-5.1-.74-7.46-8.18-5.41-16.55-10.42-25.11-15.2-29.26-16.36-59.87-28.29-91.67-38.87-9-2.99-19.73-5.1-28.27-8.68-11.96-5.01-8.2-11.84-.39-18.83,8.44-7.56,31.54-19.93,42.73-20.62,4.57-.28,17.19,2.5,14.38,9.1-1.24,2.91-15.54,10.9-19.1,14.49-.42.42-1.05.41-.8,1.35,24.06,7.18,47.34,16.96,69.6,28.55,16,8.33,38.5,23.96,55.19,28.32,1.8.47,5.22,1.83,5.74-.97.89-6.87-.22-12.85-2.16-19.41-11.34-31.28-30.45-58.95-43.91-89.27-.66-.14-.61-.1-.99.3-1.34,1.43-2.15,3.52-3.16,4.86-12.06,15.82-28.61,26.21-49.32,23.12-7.11-1.06-11.8-5.8-16.42-10.7-.54-.57-2.47-3.45-2.66-3.57-1.75-1.03-2.08,1.2-3.3,2.02-9.48,6.34-27,10.01-38.13,14.18-8.11,3.04-15.89,7.01-23.58,10.97-7.23,3.72-13.58,9.5-22.6,7.42-5.47-1.26-9.74-9.26-10.42-14.53-3.19,4.69-7.88,11.38-13.33,13.54-.65.26-4.9,1.37-5.36,1.32-.42-.04-4.33-2.02-4.82-2.4-2.47-1.84-8.63-14.67-10.88-18.39-11.37-18.77-24.18-36.71-34.72-55.99-1.25-.1-.49.2-.36.84,1.06,5.35,1.24,10.79,2.1,16.14,1.16,7.26,3.1,14.77,4.27,21.69.33,1.94-1.1,4.85-2.09,6.51-3.45,5.74-15.28,14.41-22.02,10.37-3.57-2.14-3.42-10.81-4.44-10.89-3.3,1.46-8.15,4.66-11.89,3.7-5.08-3.58-10.28-7-15.48-10.44-.55-.36-.89-1.08-1.44-1.44-13.08-8.64-26.97-15.66-41.27-22.08-1.04-.11-.61.1-.71.73-.6,3.6-.31,11.98-.03,15.85.36,4.94,3.28,9.38.43,13.83-4.07,6.35-16.14,13.54-23.58,9.8-.77-.39-2.56-2.13-2.87-2.89-1.76-4.34.4-13.87.62-18.82.23-5.22.12-11.62-.02-16.82-.05-1.78.43-6.09-.49-7.19-.28-.33-4.06-2.48-4.58-2.62-1.01-.29-.88,1.46-.9,2.14-.2,6.22,1.65,14.73,2.25,20.99.24,2.47.95,4.4.24,7.21-1.09,4.32-8.45,10.02-12.59,11.41-6.75,2.27-9.36,1.72-12.65-4.66-1.58-3.07-2.82-7.33-3.45-10.71-.75-.66-2.95,3.11-3.53,3.67-5.36,5.16-17.21,9.02-24.57,8.83-23.51-.6-28.78-25.16-30.46-44.17-.46.07-.95.61-1.16,1-1.4,2.68-2.44,6.59-3.93,9.51-15.75,30.85-53.59,40.33-75.94,10.29-1-1.34-1.25-3.28-2.95-4,.21,7.76-2.07,15.36-6.13,21.95-2.66,4.33-9.8,11.51-14.52,13.32-1.22.47-4.74.54-5.2,2-.83,10.75-2.65,21.39-3.91,32.08-.63,5.33-.57,11.55-1.46,16.77s-6.26,4.56-6.26-.45,1.7-10.94,1.96-15.84c.2-10.91,3.07-22.1,2.17-32.88-.3-.39-4.22-.85-4.83-.76-1.56.23-1.01,2.71-1.29,3.77-3.26,12.13-3.85,24.04-5.17,36.58-1.17,11.11-2.89,22.33-3.38,33.58-.34,7.71,1.6,17.08-.32,24.16-.6,2.22-.16,3.07-2.56,4.64-2.11,1.38-3.74,1.98-5.9.66s-3.92-3.22-3.67-5.88c.72-7.71,3.28-13.18,4.69-20.31.51-2.58.27-5.91.64-8.48,3.21-22.24,5.46-45.1,6.62-66.76.09-1.61.64-3.09.54-4.7-4.25-2.68-8.79-4.97-12.94-7.81-13.65-9.35-25.08-21.45-36.1-33.49-.65-.71-6.31-6.88-6.64-6.55-.51,3.17-1.26,6.35-1.66,9.53-1.54,12.31-2.6,25.17-2.69,37.77-.03,3.99.89,8.37-.11,12.33-.74,2.92-3.8,7.42-7.16,6-7.99-3.36-1.67-14.58-.52-20.4,2.77-13.96,3.05-29.24,3.57-43.51.11-3.15.46-6.42.77-9.58-5.28-5.7-10.66-12.44-16.93-17.09-3.2-2.37-7.08-3.81-10.38-5.93-1.43-.92-5.67-4.21-5.72-5.8-.13-4.52,6.65-10.54,10-13.22,28.66-22.84,40.95,9.54,56.27,29.02,8.5,10.8,19.57,23.02,29.72,32.19,2.25,2.03,18.78,14.72,20.42,14.6,1.42-1.96.95-5.54.66-7.85-5.15-40.9-47.48-91.66-75.49-120.57-1.69-1.75-6.06-4.78-7.03-6.14-.25-.35-1.19-3.73-1.14-4.11.32-2.22,1.52-1.59,1.86-1.92,7.28-7.08,16.22-17.04,27.61-11.77,5.55,2.57,8.94,6.91,13.44,10.56,18.95,15.37,39.24,24.1,63.73,26.5,3.6.35,7.28-.38,11.35.64,2.75.69,5.62,2.72,5.07,5.73ZM227.49,331.63l-21.84,3.83-17.99.49c4.71,9.33,10.47,18.02,16.23,26.72l8.97,17.43c.13-12.81,2.78-26.97,8.55-38.48,1.74-3.48,4-6.72,6.09-9.98ZM388.75,397.86c.61.63,7.46-1.78,8.35-2.44,1.91-1.41,1.14-10.9,1.22-13.65.27-8.74.55-17.56.07-26.32l.77-11.99-.85-1.47-11.97-6.5,2.4,62.39ZM256.48,344.78c-11.35,16.56-18.74,55.35-4.51,71.54,6.94,7.9,13.7,5.39,19.01-2.56,10.35-15.49,9.13-44.85.83-60.96-1.44-2.8-7.51-12.68-10.58-12.95-.94-.08-4.12,4-4.76,4.93ZM429.06,355.63l-2.65,33.58c7.58-3.38,15.41-6.05,22.81-9.81,2.65-1.35,15.85-8.79,16.27-11.11.19-1.09-2.36-2-3.23-2.42-10.08-4.93-22.52-6.75-33.2-10.23ZM671.43,410.81c.87-.18.9-.94.97-1.66.47-4.28.42-8.64,1-12.92.7-5.18,2.25-10.39,2.59-15.64-3.3,1.28-7.1,1.86-10.63,2.32-11.8,1.55-26.92,2.4-38.83,2.01-2-.07-3.93-.8-5.98-.51.36,2.48-2.1,14.57-.51,15.63.83.56,6.05.54,7.45.71,9.88,1.24,20.18,1.76,30.26,2.86,4.45.48,14.12,1.21,13.69,7.2ZM492.41,428.09c-1.3-4.4-.8-9.12-.94-13.69-.25-8.15-.03-16.34-.09-24.52-.02-2.62-.44-5.23-.42-7.86-8.7,5.3-17.87,9.93-27.36,13.66-2.25.88-14.7,4.41-15.34,5.77,11.55,6.2,22.86,12.84,34.03,19.72l10.12,6.91ZM672.39,411.3l-5.4,4.93c-15.63,6.58-32.97,8.08-49.82,9.19l-.45,20.43c13.69-2.58,27.74-5.49,41.58-7.13,3.27-.39,7.76-.91,10.95-1.05,2.82-.12,5.64.26,8.42.5-3.97-8.32-5.61-17.65-5.28-26.87ZM588.88,419.94c-1.22.46-4.92.13-5.24,1.26l3.81,29.45.97-4.54.46-26.17Z"/>
      <path class="cls-4" d="M540.88,248.6c-.01-2.7.09-5.7.52-8.36,3.01-18.51,12.4-35.64,28.8-45.59,19.94-12.09,40.63-3.42,51.23,15.88.42.76.92,2.94,1.05,3.03.86.6,4.1-2.59,5.12-3.27,4.76-3.15,12.38-7.66,18.2-7.72,1.28-.01,2.5.81,3.4.8,1.19-.02,2.81-1.76,4.94.11l-2.91-3.09c-8.27-6.87-21.54-9.44-29.8-15.32-3.94-2.8-4.34-7-.36-10.11,7.72-6.05,20.27-1.07,28.61,2.02.82.3,1.99,1.41,2.39,1.47.53.08,1.58-.97,1.58-1.14,0-.15-1.59-1.54-2.01-2.3-1.86-3.4-5-12.69-4.96-16.43,0-.59.72-1.2.71-1.9,0-.79-.78-1.39-.8-2.3-.02-1.26,1.52-8.12,2.06-9.42.48-1.14,4.77-5.72,5.85-6.15,1.7-.68,9.27-1.6,10.57-.5.21.18,2.24,4.38,2.46,4.97.98,2.73.86,6.05,1.33,8.72.82,4.67,1.35,9.43,2.89,13.93,2.11,6.16,5.78,11.61,8.63,17.41.92.42,1.74.82,2.78.94,15.25,1.69,37.53-.96,53.28-1.94,1.26-.08,6.03-1.06,6.7-.89.52.13.56,1.04.87,1.24.47.3,1.28.11,1.78.36,2.68,1.36,4.53,2.74,6.49,5.05l.24-1.44c2.47.03.11,2.2.14,4.19,0,.86.76,1.39.58,2.06-.2.74-2.65,3.39-3.48,3.71-17.37,3.83-35.26,4.96-52.91,7.33-.18.8.26.97.73,1.43,5.39,5.23,19.68,14.17,22.99,19.72,3.05,5.11-.32,9.27-5.7,9.58-13.74-4.15-25.29-13.53-38.18-19.69l1.2,1.44c4.12,2.47,7.63,5.86,11.52,8.64,15.94,11.39,32.9,21.96,47.98,34.57,8.04,6.72,21.42,19.15,13.67,30.33-10.38,14.99-52.05,21.1-69.4,23.34-7.36.95-14.87,1.69-22.25,1.98-.14,5.12-1.2,10.59-.48,15.6-1.26,3.26.39,6.37,0,9.61-.56,4.7-8.71,11.33-12.98,12.93-7.28,2.73-16.08,2.12-16.73-7.25-.16-2.26-.05-5.64-.07-8.07-.07-8.11.91-16.11.97-24.26-.3-.32-5.42,2.08-7.61-1.26-1.25-1.91-1.65-3.76-.64-5.79,2.3-4.62,5.4-7.26,9.61-10.06.2-5.52.75-11.02,1.51-16.48l-3.26,8.49c-12.4,28.68-49.39,42.81-72.81,17.91l-8.39-12.48c0,2.7,1.59,5.21,2.27,7.56,1.57,5.42,2.73,11.34,5.04,16.56,1.08,2.44,3.54,3.85,2.55,7.1-1.7,5.57-13.2,15.03-18.51,17.01-13.5,5.04-15.17-10.73-17.21-20.18-3.18-14.78-4.89-30.04-7.33-45.01-1.16-7.15-3.03-14.11-3.29-21.43l-21.12,2.41c1.88,7.58,3.6,15.26,5.79,22.76,1.39,4.75,4.92,12.02,5.54,16.58s-2.08,7.05-5.08,9.85c-5.52,5.14-12.47,10.05-20.4,9.87-4.7-.1-5.41-4.06-6.63-7.81-4.75-14.63-6.09-30.68-9.6-45.59-.21-.88-.81-4.18-1.26-4.5-1.79-.37-3.74-.26-5.57-.23-11.41.15-25.9,2.63-36.93,1.46-3.54-.38-8.35-1.23-10.54-4.34-.31-.44-1.61-3.16-1.64-3.55-.39-5.41,10.27-13.34,14.66-15.54,5.78-2.89,16.31-.61,22.94-.52,3.22.04,6.96-.59,10.1-.56.92.01,1.73.41,2.63.52-.87-4.49-1.14-9.15-1.96-13.63-2.08-11.4-4.81-23.01-7.46-34.39-1.01-4.31-5.5-17.41-4.96-20.8.22-1.37,2.36-6.1,3.2-7.37,3.54-5.35,16.33-14.7,22.38-17,4.77-1.82,6.18-.42,9.93,2.37.77,3.07.16,6.01.18,8.92.09,10.39-.21,20.88.78,31.27,1.51,15.77,5.51,31.1,7.56,46.67.33,2.49-1.72,3.26,3.25,3.02,6.4-.31,13.97-.27,20.16-.96.52-.06,1.1,0,1.45-.49-.76-3.39-.74-6.88-1.27-10.29-4.71-30.17-8.79-61.37-6.38-91.79.66-8.27,1.02-11.07,6.43-17.66,4.85-5.92,16.4-16.49,23.86-17.89,3.76-.71,9.19,1.17,10.8,4.81,2.74,6.16-1.22,12.58-2.78,18.57-11.02,42.27-8.88,79.79-1.03,122.51.34,1.83.51,4.92,1.78,6.14ZM594.34,292.94c15.24-15.4,12.24-49.18,1.6-66.52-1.91-3.11-6.28-8.99-10.19-8.57-.87.09-4.36,4.74-4.89,5.69-8.1,14.56-11.07,55.31-.83,69.18,5.11,6.93,8.8,5.78,14.31.21ZM635.91,254.36c-.92-1.87-.03-3.25.02-5.02.16-4.84.01-18.9-2.3-22.7-.78-1.28-2.27-2.58-3.48-3.48.55,3.05,1.66,5.98,2.26,9.01,1.4,7.15,2.09,13.74,2.53,20.99.06.96-.37,1.39.96,1.19ZM717.02,281.24c-.05-.07-.92-.19-1.45-.7-14.09-13.43-30.5-22.85-46.68-33.48l-1.3-.38-6.72,46.55c4.93.32,9.76-1,14.64-1.43,12.34-1.11,25.5-1.21,36.89-6.78.85-.42,5.32-2.79,4.61-3.77Z"/>
      <path class="cls-4" d="M215.54,209.2c1.24-.17,2.45.4,3.61.47,4.11.27,11.99-.13,16.25-.43,1.64-.12,13.71-1.85,14.1-2.46-.42-7.09-1.41-14.14-2.47-21.16-1.2-7.95-2.6-16.02-3.76-24.07-.84-5.8-3.55-13.03-2.02-18.93,1.89-7.26,18.56-20.08,25.48-23,6.11-2.57,11.03-.53,12.29,6.08,1.1,5.77-.1,13.54-.21,19.45-.8,44.38,1,80.11,10.83,123.6,1.07,4.75,6.14,19.25,5.04,23.17-.13.46-.93.49-1.14.86-3.61,6.37-9.51,13.01-16.89,14.81-6.85,1.66-9.07-.86-11.01-7.17-3.16-10.27-4.69-25.32-6.41-36.3-1.99-12.66-3.47-25.41-5.35-38.09l-33.39,5.75c1.12,5.68,1.97,11.78,3.29,17.4,1.58,6.77,3.69,14.1,5.48,20.91,1.31,4.97,4.42,8.89,2,14.19-2.11,4.61-9.94,12.33-14.82,13.98-.98.33-5.59,1.3-6.35,1.12-1.14-.28-5.54-3.37-6.15-4.45-.19-.33-2.23-6.91-2.28-7.33-1.6-12.85-3.63-25.51-6.28-38.34-1.37-6.61-2.05-13.38-4.86-19.62l-23.99-7.44,1.87,16.6c-.36,6.17-2.77,13.33-10.49,10.96-.2-.06-3.26-2.18-3.4-2.34-.73-.8-1.82-3.64-2.74-4.94-10.33-14.61-20.58-29.44-31.95-43.16-2.73-3.29-5.72-7.41-8.63-10.56-.52-.56-1.92-.89-2.13-1.23-.26-.42-.64-3.65-.49-4.31s1.9-4.11,2.37-4.86c1.42-2.24,6.47-6.86,8.57-8.22.84-.54,3.81-1.16,4.82-1.01,7.41,1.07,20.28,14.53,26.62,19.46,10.02,7.8,21.9,14.58,34.16,18.16.57.17.78.94,1.35.09-.8-3.15-.82-6.45-1.42-9.63-4.53-24.03-12.28-47.12-21.38-69.77,1.46-1.61.97-4.49,1.58-5.91.96-2.24,11.5-12.66,13.95-14.83,3.23-2.85,11.6-9.39,15.87-8.79.48.07,4.23,1.23,4.37,1.41.48.6.67,3.41.85,4.43.42,2.33.12,2.71.32,4.44,3.63,32.58,10.35,65.16,14.86,98.01.13.95-.5,2.01.08,2.99Z"/>
      <path class="cls-4" d="M375.96,150.54c13.46,18.54,37.32,29.07,48.51,47.23,9.9,16.08,1.3,27.13-12.53,36.34-14.5,9.66-32.22,16.79-48.9,21.65-.47,3.79-.45,7.51-.19,11.3.76,11.26,3.4,22.54,4.54,33.6.86,8.37-5.79,14.91-12.26,19.17s-15.78,3.58-18-4.98c-2.41-17.27-1.19-36.33-3.87-53.35-.14-.89-.89-5.09-1.1-5.39-.37-.53-3-1.06-3.9-1.97-1.65-1.66-2.35-5.25-1.68-7.48.58-1.94,4.12-5.05,4.56-7.44.85-4.58.12-11.55,0-16.28-.17-6.57-.25-13.13-.96-19.67-.34-3.08-.72-8-2.18-10.77s-6.03-6.02-5.46-9.84c.22-1.47,3.05-5.1,4.19-6.06,3.84-3.23,10.99-6.1,14.21-9.17.37-.35.81-.4.81-1.13,0-.56-4.69-5.73-5.51-7-4.94-7.69-8.36-18.23-6.75-27.08.21-1.15-1.25-1.93,1.2-1.68-1.05-2.37.13-1.64.47-2.26,3.52-6.49,10.77-12.55,17.65-15.37,6.01-2.45,13.2-.4,14.83,6.42,2.86,11.95,4.77,20.8,12.32,31.21ZM387.13,201.75c-6.09-5.53-14.76-9.23-20.93-14.83l-1.22.23-3.1,49.45c7.7-1.39,15.86-3.32,23.03-6.49,4.21-1.86,11.75-6.61,12.48-11.54s-6.66-13.56-10.25-16.82Z"/>
      <path class="cls-4" d="M632.15,527.35c.06.13,1.46.12,1.34,2.2-.3,5.2-10.68,5.04-14.49,4.49-2.65-.38-4.96-2-6.94-2.65-30.72-10.18-59.39-22.9-91.2-31.18-83.87-21.84-193.4-27.75-277.04-2.77-8.79,2.63-10.52,5.24-20.82,3.55-4.68-.77-13.33-4.78-13.12-10.37.02-.63.61-.99.67-1.41.09-.65-.38-1.16-.09-2.05,1.5-4.62,12.67-9.8,17.07-11.29,29.34-9.93,67.64-13.6,98.6-15.14,89.46-4.46,196.91,8.57,278.78,47.59,6.77,3.23,15.01,7.26,21.1,11.54,1.29.91,5.68,4.15,6.35,5.2.56.88-.43,1.75-.19,2.3Z"/>
      <path class="cls-4" d="M515.45,513.98c-.07.07-.93-.05-1.39.3-1.07.8-2.01,2.58-3.74,2.98-2.82.65-9.19-.1-12.34-.42-15.84-1.59-31.62-4.05-47.55-4.76-12.54-.56-24.72-.32-37.19,0,1.67,1.64,4.81,1.91,7.05,2.79,10.88,4.28,35.62,17.42,36.01,30.69.24,8.03-7,10.51-11.89,14.73-14.21,12.26-16.08,44.93-14.35,62.38.09.89.86,1.6.92,2.45.18,2.69-1.58,8.46-2.82,10.68-.77,1.38-.16,2.59-2.67,2.73-8.42.47-7.95-10.06-6.44-15.78,1.37-5.2,3.34-9.83,4.21-15.47.96-6.19,1.73-14.01,2.18-20.27.72-10.07-.71-25.87,3.7-34.8,2.64-5.34,8.37-4.32,1.86-11.09-11.68-12.13-51.74-19.36-68.38-19.48-3.92-.03-6.07,1.03-10.42-.1-2.58-.67-9.02-4.41-9.86-6.94-.24-.73.04-1.57-.12-2.2-.11-.42-.96-.27-.97-.56-.01-1,1.35-1.43,1.34-1.92,0-.29-1.18-1.08-.83-1.66.03-.04.69.04.93-.36,3.16-5.19,4.65-7.39,10.78-9.76,8.29-3.21,25.38-4.85,34.65-5.66,35.1-3.06,77.2-1.45,111.22,8.61,3.75,1.11,12.28,3.57,14.62,6.5,1.43,1.79,1.2,2.82,1.13,4.73-.02.52.52,1.52.37,1.66Z"/>
      <path class="cls-4" d="M852.06,338.17c2.08,2.53,2.79,2.9,2.56,6.52-.51,8.19-6.48,15.36-10.12,22.52-6.35,12.47-13.19,27.22-17.43,40.64-3.21,10.16-4.33,23.49-11.21,31.87-2.99,3.64-7.86,5.46-12.41,3.44-2.56-1.14-5.47-5.52-6.27-8.13-2.18-7.13-1.43-17.45-.38-24.81,2.17-15.24,8.01-28.47,12.25-42.94,2.47-8.44.35-14.41,7.77-21.02,3.63-3.24,20.33-12.26,24.71-11.75.73.09,1.25.97,1.84.88.47-.08.7-.8,1.87-.79.78,0,5.14,1.48,5.84,1.9.84.5.59,1.22.96,1.67Z"/>
      <path class="cls-4" d="M323.3,286.82c-2.5,3.4-8.2,8.28-12.2,9.63-5.87,1.99-7.32-.76-8.98-6.1-4.66-15-7.31-34.36-9.35-50.15-.67-5.18-.87-18.48-3.42-22.49-.73-1.14-2.03-1.44-2.83-2.45-3.56-4.49,2.28-9.23,5.61-11.69,4.03-2.97,17.3-10.19,22.01-10.08,3.73.09,5.52,2.53,5.98,5.92.63,4.67-.43,8.56-.49,12.93-.38,24.21,1.8,47.25,5.74,71.09-.01.28-1.71,2.91-2.06,3.39Z"/>
      <path class="cls-4" d="M290.53,154.22c3.5-3.86,11.2-9.2,16.44-9.71,4.48-.44,10.23,1.11,12.28,5.37,3.3,6.87-.86,24.7-5.84,30.34-18.51,20.99-39.36-7.87-22.88-26Z"/>
      <path class="cls-4" d="M791.27,269.13c-1.02,1.73-.24.91-.29,3.23-.11,4.97-12.29,19.41-16.11,23.77-6.87,7.84-15.52,16.89-23.53,23.5-1.16.96-6.18,5.04-7.07,5.41-2.66,1.08-4.96-.3-7.56-.6,1.58-2.86.03-1.72-.41-2.46-.8-1.37,1.19-1.93,1.68-2.5,10.9-12.61,26.15-31.11,31.98-46.49,1.67-4.4,1.25-9.25,6.25-11.51,5.77-2.61,10.16-1.58,13.69,3.77.63.95,2.09,2.67,1.38,3.88Z"/>
      <path class="cls-4" d="M448.13,280.14c-.32.33-2.71,1.48-3.33,1.71-6.14,2.36-14.65,1.68-21.2,2.32-9.9.98-29.47,5.08-38.06.53-9.29-4.92-.94-13.79,5.5-16.29,6.8-2.64,19.65-.95,27.22-.71s19.17-.85,26.31,2.58c.98.47,4.02,2.37,4.4,3.28.64,1.53.34,5.38-.84,6.58Z"/>
      <rect class="cls-1" x="741.5" y="325.87" width="1.43" height=".95"/>
      <rect class="cls-3" x="372.91" y="538.96" width=".95" height="1.43"/>
      <path class="cls-5" d="M746.78,571.59c-.26.95-1.02,1.08-1.92.95.26-.95,1.02-1.08,1.92-.95Z"/>
      <path class="cls-6" d="M302.84,446.81v.95c-.71.16-1-.21-1.43-.72l1.43-.24Z"/>
      <circle class="cls-2" cx="720.39" cy="544.7" r=".59"/>
    </g>
  </g>
</svg>